<?xml version="1.0" encoding="utf-8"?>
<!-- Generator: Adobe Illustrator 21.0.2, SVG Export Plug-In . SVG Version: 6.00 Build 0)  -->
<svg version="1.1" id="Layer_1" xmlns="http://www.w3.org/2000/svg" xmlns:xlink="http://www.w3.org/1999/xlink" x="0px" y="0px"
	 viewBox="0 0 454 440" style="enable-background:new 0 0 454 440;" xml:space="preserve">
<style type="text/css">
	.st0{fill:none;stroke:#010202;stroke-width:10;stroke-miterlimit:10;}
	.st1{fill:#010202;}
	.st2{fill:#2D0E0F;}
</style>
<polygon class="st0" points="352.3,406.7 227.2,340.6 101.8,406.2 126,266.7 24.9,167.7 165,147.7 227.9,20.9 290.2,147.9 
	430.2,168.6 328.7,267.1 "/>
<path class="st1" d="M172.5,189.1l0.4-48.3c0,0-38.4,13.3-49.8-25.9c-2.3-14.1,13.3-26.6,18.3-27c4.9-0.4,16-8.8,37.3,5.7
	c0,0-5-7.8-16.8-12.2c0,0,10.3-13.3,27.7-11.7c17.4,1.6,21.4,5.9,31.5,17l0.4-0.6c0,0-3.2-8.4-7.6-10.7c0,0,21.3-24.9,52.3-3.7
	c0,0-12.7,8.5-14.9,21.7c0,0,12.9-20.7,32.4-19.5c0,0,42.5,2.3,42.8,37.4s-40.9,38.2-45.1,37.9v40.1l-5.7,0.1l-0.9-39.8l-2.3,0.1
	l-1.2,39.7h-2.6l-0.6-19h-1.2c0,0-1.5,17.6-1.3,19l-78.8-0.3c0,0-0.7-13.5-1.6-14.6l-0.9-0.1l-0.6,14.8h-2.3l-0.6-29.2h-1.5
	l-1.5,29.3L172.5,189.1z"/>
<g id="XMLID_3_">
	<g>
		<path class="st2" d="M137.2,101.4l2.1,1.1c-3.8,18.5,8,30.3,8,30.3c-15.2-2.2-16.3-17.4-16.3-17.4
			C129.7,107.8,137.2,101.4,137.2,101.4z"/>
	</g>
	<g>
	</g>
</g>
<path class="st2" d="M146.7,119.6c0,0-10.7-5.2-1.4-18.1l2.1,2.1C147.4,103.6,143.9,110.9,146.7,119.6z"/>
<path class="st2" d="M179.8,85.2l5.4,0.2c0,0,0.7-2-0.1-2.5c-0.8-0.4-4.5-0.3-5.4,0.9S179.8,85.2,179.8,85.2z"/>
<path class="st2" d="M195.6,80.1c0,0-12.5-2.2-18.1,1c0.3,0.4-2.3-1.1-2.3-1.1s8.1-7.5,19.5-2.5L195.6,80.1z"/>
<path class="st2" d="M225.2,75.8c0,0,7.7-5.3,19.5-3.9c0,0,0.4-2.4-0.5-2.6s-13.4-2.1-19,3.9C225.3,73.1,225.2,75.8,225.2,75.8z"/>
<path class="st2" d="M238,75.9c0,0,4.1,1,4.8,0.2s1-3-2.2-3.2S238,75.9,238,75.9z"/>
<path class="st2" d="M302.7,89.5l-1.8,0.7c12.6,9.8,11.4,23.2,11.4,23.2c0.2,10.9-14.7,22.9-14.7,22.9l1.3,2
	c4.3-1.4,19.7-9.7,21-25.5S302.7,89.5,302.7,89.5z"/>
<path class="st2" d="M304.6,119.7c0,0-0.9-10.5-2.2-11.8c0,0-0.3-3.2,2.3-1.6C307.2,107.9,309.9,115,304.6,119.7z"/>
<polygon class="st1" points="172.1,200 174.4,216.4 207.3,217.6 207.3,219.6 175.1,220.2 175.9,225.8 278,225.8 280.8,207.8 
	250.5,207.1 250.5,204.7 281.5,204.7 281.9,199.6 "/>
<path class="st1" d="M226.1,259.4c0,0,7.8-20.4,33-3.2c0.2,0.7,14.6,13.6,15.8,15.5c1.2,1.9,10.9,8.7,16.8,3.6c0,0,3.5-3.1-3.2-8.8
	c0,0,3.2-0.5,6.1,2.6c0,0-2.8-11-14.1-4.3c0,0,15.8-13.7,22.1,7.6c0,0,0.5,25.7-30.7,16.1c0,0-24.9-13.4-32.6-13.6
	c0,0-8.8,0.7-13.4-8.4C223.4,260,226.1,259.4,226.1,259.4z"/>
<path class="st2" d="M235.4,259.5c0,0,18.2,2.9,22.5,9.3l1.9-0.6C259.8,268.2,255.8,257.5,235.4,259.5z"/>
<path class="st2" d="M245,255.5c0,0,16.8,6.8,22.3,15.9c0,0,0.4-1.2,1.3-1.2S257.5,253.6,245,255.5z"/>
<path class="st2" d="M282.7,286.1c0,0,10.2-1.8,14.9-10.3C297.6,275.8,294.7,290.1,282.7,286.1z"/>
<path class="st1" d="M226.9,259.1c0,0-7.8-20.4-33-3.1c-0.2,0.7-14.6,13.6-15.8,15.6c-1.2,1.9-10.9,8.8-16.8,3.7
	c0,0-3.5-3.1,3.1-8.8c0,0-3.2-0.5-6.1,2.6c0,0,2.8-11,14.1-4.3c0,0-15.8-13.7-22.1,7.6c0,0-0.5,25.7,30.7,16.1
	c0,0,24.9-13.4,32.6-13.6c0,0,8.8,0.7,13.4-8.4C229.6,259.7,226.9,259.1,226.9,259.1z"/>
<path class="st2" d="M217.6,259.2c0,0-18.2,2.9-22.5,9.3l-1.9-0.6C193.2,267.9,197.2,257.2,217.6,259.2z"/>
<path class="st2" d="M207.9,255.2c0,0-16.8,6.8-22.3,15.9c0,0-0.4-1.2-1.3-1.2C183.4,269.9,195.5,253.3,207.9,255.2z"/>
<path class="st2" d="M170.3,285.8c0,0-10.2-1.8-14.9-10.3C155.4,275.5,158.3,289.9,170.3,285.8z"/>
<path class="st1" d="M160.3,212.6c0,0-2.5-6.5-13.3,0.9c-10.8,7.3-19,56.5-16,69.8s18.5,52.8,36.7,62.1s26.5,31.8,25.5,40.7
	c0,0,6.4-19.6,1-26.9c0,0,17.1,34.8,11.3,48.5c0,0,21.6-27.9,20.6-40.1c3.8-13.8,0.7-82,0.7-82s-13.5-1.8-17.5,3.1
	c-3.9,4.9-2,14.7-6.9,16.7c-4.9,2-36.7,0-47-11.3c-10.3-11.3-13.7-41.2-8.8-51.9c4.9-10.8,9.3-18.6,13.7-20.6
	C164.8,219.5,160.3,212.6,160.3,212.6z"/>
<path class="st1" d="M291.9,212.4c0,0,2.5-6.5,13.3,0.8c10.8,7.3,19.4,56.4,16.6,69.6c-2.8,13.3-18.1,53-36.1,62.5
	c-18,9.5-26.2,32.1-25.1,40.9c0,0-6.5-19.5-1.2-26.9c0,0-16.9,34.9-10.9,48.6c0,0-21.9-27.7-21-39.9c-3.9-13.8-1.4-82-1.4-82
	s13.5-1.9,17.5,2.9s2.1,14.7,7,16.6s36.7-0.3,46.9-11.7s13.4-41.3,8.4-52s-9.5-18.5-13.9-20.5C287.5,219.3,291.9,212.4,291.9,212.4z
	"/>
<g>
	<path class="st2" d="M239,312.7c-3.1-10.3-1-15-1-15s-10.8-7.2-22.1,0.7l0.5,2.6c0.2,2.4,0,6.4-2,12.3c-3.5,10.2-9.6,22.4-7.2,28.2
		c2.4,5.8,6.8,11.6,6.8,11.6s-1.7-9.9,4-23.6c1-2.5,1.8-5,2.3-7.4l0,0.2c0,0,4.3,4.3,4.3,8.6s-2.6,9.1-2.6,9.1s6.5-10.4,6.5-15.5
		c0-4.5,1.9,5.6,1.6,8.9c0.9-1.5,2.7-4.5,3.9-7.7c0.3,1,0.6,2,1,3c5.2,14,3.1,23.8,3.1,23.8s4.7-5.7,7.2-11.4
		C247.8,335.5,242.1,323.1,239,312.7z"/>
	<path class="st2" d="M229.7,334.4c0.2-0.1,0.3-0.5,0.3-1C229.5,334.3,229.4,334.7,229.7,334.4z"/>
</g>
</svg>
