<?xml version="1.0" encoding="utf-8"?>
<!-- Generator: Adobe Illustrator 21.0.2, SVG Export Plug-In . SVG Version: 6.00 Build 0)  -->
<svg version="1.1" id="Layer_1" xmlns="http://www.w3.org/2000/svg" xmlns:xlink="http://www.w3.org/1999/xlink" x="0px" y="0px"
	 viewBox="0 0 330 390" style="enable-background:new 0 0 330 390;" xml:space="preserve">
<style type="text/css">
	.st0{fill:none;stroke:#FFFFFF;stroke-width:13;stroke-miterlimit:10;}
	.st1{fill:#FFFFFF;}
	.st2{fill:#790808;}
</style>
<polygon class="st0" points="239,363.5 89.8,363.5 15.1,234.2 89.8,105 239,105 313.7,234.2 "/>
<path class="st1" d="M108,135.6l0.4-48.3c0,0-38.4,13.3-49.8-25.9c-2.3-14.1,13.3-26.6,18.3-27c4.9-0.4,16-8.8,37.3,5.7
	c0,0-5-7.8-16.8-12.2c0,0,10.3-13.3,27.7-11.7s21.4,5.9,31.5,17l0.4-0.6c0,0-3.2-8.4-7.6-10.7c0,0,21.3-24.9,52.3-3.7
	c0,0-12.7,8.5-14.9,21.7c0,0,12.9-20.7,32.4-19.5c0,0,42.5,2.3,42.8,37.4c0.3,35-40.9,38.2-45.1,37.9v40.1l-5.7,0.1l-0.9-39.8
	l-2.3,0.1l-1.2,39.7h-2.6l-0.6-19h-1.2c0,0-1.5,17.6-1.3,19l-78.8-0.3c0,0-0.7-13.5-1.6-14.6l-0.9-0.1l-0.6,14.8h-2.3l-0.6-29.2
	h-1.5l-1.5,29.3L108,135.6z"/>
<g id="XMLID_6_">
	<g>
		<path class="st2" d="M72.6,47.8l2.1,1.1c-3.8,18.5,8,30.3,8,30.3C67.5,77,66.4,61.8,66.4,61.8C65.2,54.3,72.6,47.8,72.6,47.8z"/>
	</g>
</g>
<path class="st2" d="M82.2,66.1c0,0-10.7-5.2-1.4-18.1l2.1,2.1C82.9,50.1,79.4,57.4,82.2,66.1z"/>
<path class="st2" d="M115.3,31.6l5.4,0.2c0,0,0.7-2-0.1-2.5s-4.5-0.3-5.4,0.9S115.3,31.6,115.3,31.6z"/>
<path class="st2" d="M131.1,26.5c0,0-12.5-2.2-18.1,1c0.3,0.4-2.3-1.1-2.3-1.1s8.1-7.5,19.5-2.5L131.1,26.5z"/>
<path class="st2" d="M160.7,22.2c0,0,7.7-5.3,19.5-3.9c0,0,0.4-2.4-0.5-2.6c-0.9-0.3-13.4-2.1-19,3.9
	C160.8,19.6,160.7,22.2,160.7,22.2z"/>
<path class="st2" d="M173.4,22.3c0,0,4.1,1,4.8,0.2s1-3-2.2-3.2S173.4,22.3,173.4,22.3z"/>
<path class="st2" d="M238.2,35.9l-1.8,0.7c12.6,9.8,11.4,23.2,11.4,23.2c0.2,10.9-14.7,22.9-14.7,22.9l1.3,2
	c4.3-1.4,19.7-9.7,21-25.5C256.6,43.4,238.2,35.9,238.2,35.9z"/>
<path class="st2" d="M240.1,66.1c0,0-0.9-10.5-2.2-11.8c0,0-0.3-3.2,2.3-1.6C242.7,54.4,245.4,61.5,240.1,66.1z"/>
<polygon class="st1" points="107.5,146.5 109.9,162.8 142.8,164.1 142.8,166 110.5,166.7 111.4,172.3 213.5,172.3 216.3,154.2 
	186,153.6 186,151.2 216.9,151.2 217.4,146.1 "/>
<path class="st1" d="M161.6,205.9c0,0,7.8-20.4,33-3.2c0.2,0.7,14.6,13.6,15.8,15.5s10.9,8.7,16.8,3.6c0,0,3.5-3.1-3.2-8.8
	c0,0,3.2-0.5,6.1,2.6c0,0-2.8-11-14.1-4.3c0,0,15.8-13.7,22.1,7.6c0,0,0.5,25.7-30.7,16.1c0,0-24.9-13.4-32.6-13.6
	c0,0-8.8,0.7-13.4-8.4C158.9,206.5,161.6,205.9,161.6,205.9z"/>
<path class="st2" d="M170.9,206c0,0,18.2,2.9,22.5,9.3l1.9-0.6C195.3,214.7,191.3,203.9,170.9,206z"/>
<path class="st2" d="M180.5,202c0,0,16.8,6.8,22.3,15.9c0,0,0.4-1.2,1.3-1.2C205,216.6,192.9,200.1,180.5,202z"/>
<path class="st2" d="M218.2,232.6c0,0,10.2-1.8,14.9-10.3C233.1,222.2,230.2,236.6,218.2,232.6z"/>
<path class="st1" d="M162.3,205.6c0,0-7.8-20.4-33-3.1c-0.2,0.7-14.6,13.6-15.8,15.6c-1.2,1.9-10.9,8.8-16.8,3.7
	c0,0-3.5-3.1,3.1-8.8c0,0-3.2-0.5-6.1,2.6c0,0,2.8-11,14.1-4.3c0,0-15.8-13.7-22.1,7.6c0,0-0.5,25.7,30.7,16.1
	c0,0,24.9-13.4,32.6-13.6c0,0,8.8,0.7,13.4-8.4C165.1,206.2,162.3,205.6,162.3,205.6z"/>
<path class="st2" d="M153,205.7c0,0-18.2,2.9-22.5,9.3l-1.9-0.6C128.7,214.4,132.6,203.6,153,205.7z"/>
<path class="st2" d="M143.4,201.7c0,0-16.8,6.8-22.3,15.9c0,0-0.4-1.2-1.3-1.2S131,199.8,143.4,201.7z"/>
<path class="st2" d="M105.8,232.3c0,0-10.2-1.8-14.9-10.3C90.9,222,93.7,236.4,105.8,232.3z"/>
<path class="st1" d="M95.8,159.1c0,0-2.5-6.5-13.3,0.9c-10.8,7.3-19,56.5-16,69.8c2.9,13.2,18.5,52.8,36.7,62.1
	c18.1,9.3,26.5,31.8,25.5,40.7c0,0,6.4-19.6,1-26.9c0,0,17.1,34.8,11.3,48.5c0,0,21.6-27.9,20.6-40.1c3.8-13.8,0.7-82,0.7-82
	s-13.5-1.8-17.5,3.1c-3.9,4.9-2,14.7-6.9,16.7s-36.7,0-47-11.3s-13.7-41.2-8.8-51.9c4.9-10.8,9.3-18.6,13.7-20.6
	C100.2,166,95.8,159.1,95.8,159.1z"/>
<path class="st1" d="M227.4,158.8c0,0,2.5-6.5,13.3,0.8s19.4,56.4,16.6,69.6c-2.8,13.3-18.1,53-36.1,62.5s-26.2,32-25.2,40.9
	c0,0-6.5-19.5-1.2-26.9c0,0-16.9,34.9-10.9,48.6c0,0-21.9-27.7-21-39.9c-3.9-13.8-1.4-82-1.4-82s13.5-1.9,17.5,2.9
	c4,4.9,2.1,14.7,7,16.6c4.9,1.9,36.7-0.3,46.9-11.7s13.4-41.3,8.4-52s-9.5-18.5-13.9-20.5S227.4,158.8,227.4,158.8z"/>
<g>
	<path class="st2" d="M174.5,259.2c-3.1-10.3-1-15-1-15s-10.8-7.2-22.1,0.7l0.5,2.6c0.2,2.4,0,6.4-2,12.3
		c-3.5,10.2-9.6,22.4-7.2,28.2c2.4,5.8,6.8,11.6,6.8,11.6s-1.7-9.9,4-23.6c1-2.5,1.8-5,2.3-7.4v0.2c0,0,4.3,4.3,4.3,8.6
		s-2.6,9.1-2.6,9.1s6.5-10.4,6.5-15.5c0-4.5,1.9,5.6,1.6,8.9c0.9-1.5,2.7-4.5,3.9-7.7c0.3,1,0.6,2,1,3c5.2,14,3.1,23.8,3.1,23.8
		s4.7-5.7,7.2-11.4C183.3,281.9,177.6,269.5,174.5,259.2z"/>
	<path class="st2" d="M165.2,280.9c0.2-0.1,0.3-0.5,0.3-1C165,280.7,164.8,281.1,165.2,280.9z"/>
</g>
</svg>
