<?xml version="1.0" encoding="utf-8"?>
<!-- Generator: Adobe Illustrator 21.0.2, SVG Export Plug-In . SVG Version: 6.00 Build 0)  -->
<svg version="1.1" id="Layer_1" xmlns="http://www.w3.org/2000/svg" xmlns:xlink="http://www.w3.org/1999/xlink" x="0px" y="0px"
	 viewBox="0 0 322 388" style="enable-background:new 0 0 322 388;" xml:space="preserve">
<style type="text/css">
	.st0{fill:#333333;stroke:#010202;stroke-width:10;stroke-miterlimit:10;}
	.st1{fill:#010202;}
	.st2{fill:#2D0E0F;}
</style>
<circle class="st0" cx="161.7" cy="230.8" r="139.5"/>
<path class="st1" d="M107.8,135.8l0.4-48.3c0,0-38.4,13.3-49.8-25.9c-2.3-14.1,13.3-26.6,18.3-27c4.9-0.4,16-8.8,37.3,5.7
	c0,0-5-7.8-16.8-12.2c0,0,10.3-13.3,27.7-11.7c17.4,1.6,21.4,5.9,31.5,17l0.4-0.6c0,0-3.2-8.4-7.6-10.7c0,0,21.3-24.9,52.3-3.7
	c0,0-12.7,8.5-14.9,21.7c0,0,12.9-20.7,32.4-19.5c0,0,42.5,2.3,42.8,37.4c0.3,35-40.9,38.2-45.1,37.9v40.1l-5.7,0.1l-0.9-39.8
	l-2.3,0.1l-1.2,39.7h-2.6l-0.6-19H202c0,0-1.5,17.6-1.3,19l-78.8-0.3c0,0-0.7-13.5-1.6-14.6l-0.9-0.1l-0.6,14.8h-2.3l-0.6-29.2h-1.5
	l-1.5,29.3L107.8,135.8z"/>
<g id="XMLID_2_">
	<g>
		<path class="st2" d="M72.5,48.1l2.1,1.1c-3.8,18.5,8,30.3,8,30.3c-15.2-2.2-16.3-17.4-16.3-17.4C65,54.5,72.5,48.1,72.5,48.1z"/>
	</g>
	<g>
	</g>
</g>
<path class="st2" d="M82,66.3c0,0-10.7-5.2-1.4-18.1l2.1,2.1C82.7,50.3,79.2,57.6,82,66.3z"/>
<path class="st2" d="M115.1,31.9l5.4,0.2c0,0,0.7-2-0.1-2.5s-4.5-0.3-5.4,0.9S115.1,31.9,115.1,31.9z"/>
<path class="st2" d="M130.9,26.8c0,0-12.5-2.2-18.1,1c0.3,0.4-2.3-1.1-2.3-1.1s8.1-7.5,19.5-2.5L130.9,26.8z"/>
<path class="st2" d="M160.5,22.5c0,0,7.7-5.3,19.5-3.9c0,0,0.4-2.4-0.5-2.6s-13.4-2.1-19,3.9C160.6,19.8,160.5,22.5,160.5,22.5z"/>
<path class="st2" d="M173.2,22.5c0,0,4.1,1,4.8,0.2s1-3-2.2-3.2S173.2,22.5,173.2,22.5z"/>
<path class="st2" d="M238,36.2l-1.8,0.7c12.6,9.8,11.4,23.2,11.4,23.2c0.2,10.9-14.7,22.9-14.7,22.9l1.3,2c4.3-1.4,19.7-9.7,21-25.5
	C256.5,43.6,238,36.2,238,36.2z"/>
<path class="st2" d="M239.9,66.3c0,0-0.9-10.5-2.2-11.8c0,0-0.3-3.2,2.3-1.6C242.5,54.6,245.2,61.7,239.9,66.3z"/>
<polygon class="st1" points="107.4,146.7 109.7,163 142.6,164.3 142.6,166.3 110.4,166.9 111.2,172.5 213.3,172.5 216.1,154.4 
	185.8,153.8 185.8,151.4 216.8,151.4 217.2,146.3 "/>
<path class="st1" d="M161.4,206.1c0,0,7.8-20.4,33-3.2c0.2,0.7,14.6,13.6,15.8,15.5c1.2,1.9,10.9,8.7,16.8,3.6c0,0,3.5-3.1-3.2-8.8
	c0,0,3.2-0.5,6.1,2.6c0,0-2.8-11-14.1-4.3c0,0,15.8-13.7,22.1,7.6c0,0,0.5,25.7-30.7,16.1c0,0-24.9-13.4-32.6-13.6
	c0,0-8.8,0.7-13.4-8.4C158.7,206.7,161.4,206.1,161.4,206.1z"/>
<path class="st2" d="M170.7,206.2c0,0,18.2,2.9,22.5,9.3l1.9-0.6C195.1,214.9,191.1,204.1,170.7,206.2z"/>
<path class="st2" d="M180.3,202.2c0,0,16.8,6.8,22.3,15.9c0,0,0.4-1.2,1.3-1.2S192.7,200.3,180.3,202.2z"/>
<path class="st2" d="M218,232.8c0,0,10.2-1.8,14.9-10.3C232.9,222.5,230,236.8,218,232.8z"/>
<path class="st1" d="M162.2,205.8c0,0-7.8-20.4-33-3.1c-0.2,0.7-14.6,13.6-15.8,15.6c-1.2,1.9-10.9,8.8-16.8,3.7
	c0,0-3.5-3.1,3.1-8.8c0,0-3.2-0.5-6.1,2.6c0,0,2.8-11,14.1-4.3c0,0-15.8-13.7-22.1,7.6c0,0-0.5,25.7,30.7,16.1
	c0,0,24.9-13.4,32.6-13.6c0,0,8.8,0.7,13.4-8.4C164.9,206.4,162.2,205.8,162.2,205.8z"/>
<path class="st2" d="M152.9,205.9c0,0-18.2,2.9-22.5,9.3l-1.9-0.6C128.5,214.6,132.5,203.9,152.9,205.9z"/>
<path class="st2" d="M143.2,201.9c0,0-16.8,6.8-22.3,15.9c0,0-0.4-1.2-1.3-1.2C118.7,216.6,130.8,200,143.2,201.9z"/>
<path class="st2" d="M105.6,232.5c0,0-10.2-1.8-14.9-10.3C90.7,222.2,93.6,236.6,105.6,232.5z"/>
<path class="st1" d="M95.6,159.3c0,0-2.5-6.5-13.3,0.9c-10.8,7.3-19,56.5-16,69.8c2.9,13.2,18.5,52.8,36.7,62.1
	c18.1,9.3,26.5,31.8,25.5,40.7c0,0,6.4-19.6,1-26.9c0,0,17.1,34.8,11.3,48.5c0,0,21.6-27.9,20.6-40.1c3.8-13.8,0.7-82,0.7-82
	s-13.5-1.8-17.5,3.1c-3.9,4.9-2,14.7-6.9,16.7c-4.9,2-36.7,0-47-11.3c-10.3-11.3-13.7-41.2-8.8-51.9c4.9-10.8,9.3-18.6,13.7-20.6
	C100.1,166.2,95.6,159.3,95.6,159.3z"/>
<path class="st1" d="M227.2,159c0,0,2.5-6.5,13.3,0.8c10.8,7.3,19.4,56.4,16.6,69.6c-2.8,13.3-18.1,53-36.1,62.5
	c-18,9.5-26.2,32.1-25.1,40.9c0,0-6.5-19.5-1.2-26.9c0,0-16.9,34.9-10.9,48.6c0,0-21.9-27.7-21-39.9c-3.9-13.8-1.4-82-1.4-82
	s13.5-1.9,17.5,2.9c4,4.9,2.1,14.7,7,16.6s36.7-0.3,46.9-11.7s13.4-41.3,8.4-52c-5-10.7-9.5-18.5-13.9-20.5
	C222.8,165.9,227.2,159,227.2,159z"/>
<g>
	<path class="st2" d="M174.3,259.4c-3.1-10.3-1-15-1-15s-10.8-7.2-22.1,0.7l0.5,2.6c0.2,2.4,0,6.4-2,12.3
		c-3.5,10.2-9.6,22.4-7.2,28.2c2.4,5.8,6.8,11.6,6.8,11.6s-1.7-9.9,4-23.6c1-2.5,1.8-5,2.3-7.4l0,0.2c0,0,4.3,4.3,4.3,8.6
		s-2.6,9.1-2.6,9.1s6.5-10.4,6.5-15.5c0-4.5,1.9,5.6,1.6,8.9c0.9-1.5,2.7-4.5,3.9-7.7c0.3,1,0.6,2,1,3c5.2,14,3.1,23.8,3.1,23.8
		s4.7-5.7,7.2-11.4C183.1,282.1,177.4,269.7,174.3,259.4z"/>
	<path class="st2" d="M165,281.1c0.2-0.1,0.3-0.5,0.3-1C164.8,280.9,164.7,281.4,165,281.1z"/>
</g>
</svg>
