<?xml version="1.0" encoding="utf-8"?>
<!-- Generator: Adobe Illustrator 21.0.2, SVG Export Plug-In . SVG Version: 6.00 Build 0)  -->
<svg version="1.1" id="Layer_1" xmlns="http://www.w3.org/2000/svg" xmlns:xlink="http://www.w3.org/1999/xlink" x="0px" y="0px"
	 viewBox="0 0 313 388" style="enable-background:new 0 0 313 388;" xml:space="preserve">
<style type="text/css">
	.st0{fill:none;stroke:#010202;stroke-width:11;stroke-miterlimit:10;}
	.st1{fill:#333333;}
	.st2{fill:#2D0E0F;}
</style>
<circle class="st0" cx="158" cy="230" r="139.5"/>
<path class="st1" d="M104.1,135l0.4-48.3c0,0-38.4,13.3-49.8-25.9c-2.3-14.1,13.3-26.6,18.3-27c4.9-0.4,16-8.8,37.3,5.7
	c0,0-5-7.8-16.8-12.2c0,0,10.3-13.3,27.7-11.7s21.4,5.9,31.5,17l0.4-0.6c0,0-3.2-8.4-7.6-10.7c0,0,21.3-24.9,52.3-3.7
	c0,0-12.7,8.5-14.9,21.7c0,0,12.9-20.7,32.4-19.5c0,0,42.5,2.3,42.8,37.4c0.3,35-40.9,38.2-45.1,37.9v40.1l-5.7,0.1l-0.9-39.8
	l-2.3,0.1l-1.2,39.7H200l-0.6-19h-1.2c0,0-1.5,17.6-1.3,19l-78.8-0.3c0,0-0.7-13.5-1.6-14.6l-0.9-0.1l-0.6,14.8h-2.3l-0.6-29.2h-1.5
	l-1.5,29.3L104.1,135z"/>
<g id="XMLID_1_">
	<g>
		<path class="st2" d="M68.7,47.2l2.1,1.1c-3.8,18.5,8,30.3,8,30.3c-15.2-2.2-16.3-17.4-16.3-17.4C61.3,53.7,68.7,47.2,68.7,47.2z"
			/>
	</g>
	<g>
	</g>
</g>
<path class="st2" d="M78.3,65.5c0,0-10.7-5.2-1.4-18.1l2.1,2.1C79,49.5,75.4,56.8,78.3,65.5z"/>
<path class="st2" d="M111.4,31l5.4,0.2c0,0,0.7-2-0.1-2.5s-4.5-0.3-5.4,0.9S111.4,31,111.4,31z"/>
<path class="st2" d="M127.2,25.9c0,0-12.5-2.2-18.1,1c0.3,0.4-2.3-1.1-2.3-1.1s8.1-7.5,19.5-2.5L127.2,25.9z"/>
<path class="st2" d="M156.8,21.6c0,0,7.7-5.3,19.5-3.9c0,0,0.4-2.4-0.5-2.6c-0.9-0.3-13.4-2.1-19,3.9
	C156.8,19,156.8,21.6,156.8,21.6z"/>
<path class="st2" d="M169.5,21.7c0,0,4.1,1,4.8,0.2s1-3-2.2-3.2S169.5,21.7,169.5,21.7z"/>
<path class="st2" d="M234.3,35.3l-1.8,0.7c12.6,9.8,11.4,23.2,11.4,23.2c0.2,10.9-14.7,22.9-14.7,22.9l1.3,2
	c4.3-1.4,19.7-9.7,21-25.5C252.7,42.8,234.3,35.3,234.3,35.3z"/>
<path class="st2" d="M236.1,65.5c0,0-0.9-10.5-2.2-11.8c0,0-0.3-3.2,2.3-1.6C238.7,53.7,241.5,60.8,236.1,65.5z"/>
<polygon class="st1" points="103.6,145.8 105.9,162.2 138.8,163.5 138.8,165.4 106.6,166.1 107.5,171.6 209.6,171.6 212.4,153.6 
	182,152.9 182,150.6 213,150.6 213.4,145.4 "/>
<path class="st1" d="M157.6,205.2c0,0,7.8-20.4,33-3.2c0.2,0.7,14.6,13.6,15.8,15.5c1.2,1.9,10.9,8.7,16.8,3.6c0,0,3.5-3.1-3.2-8.8
	c0,0,3.2-0.5,6.1,2.6c0,0-2.8-11-14.1-4.3c0,0,15.8-13.7,22.1,7.6c0,0,0.5,25.7-30.7,16.1c0,0-24.9-13.4-32.6-13.6
	c0,0-8.8,0.7-13.4-8.4C154.9,205.9,157.6,205.2,157.6,205.2z"/>
<path class="st2" d="M166.9,205.4c0,0,18.2,2.9,22.5,9.3l1.9-0.6C191.3,214,187.3,203.3,166.9,205.4z"/>
<path class="st2" d="M176.6,201.3c0,0,16.8,6.8,22.3,15.9c0,0,0.4-1.2,1.3-1.2C201.1,216,189,199.4,176.6,201.3z"/>
<path class="st2" d="M214.2,231.9c0,0,10.2-1.8,14.9-10.3C229.1,221.6,226.3,236,214.2,231.9z"/>
<path class="st1" d="M158.4,204.9c0,0-7.8-20.4-33-3.1c-0.2,0.7-14.6,13.6-15.8,15.6c-1.2,1.9-10.9,8.8-16.8,3.7
	c0,0-3.5-3.1,3.1-8.8c0,0-3.2-0.5-6.1,2.6c0,0,2.8-11,14.1-4.3c0,0-15.8-13.7-22.1,7.6c0,0-0.5,25.7,30.7,16.1
	c0,0,24.9-13.4,32.6-13.6c0,0,8.8,0.7,13.4-8.4C161.1,205.6,158.4,204.9,158.4,204.9z"/>
<path class="st2" d="M149.1,205.1c0,0-18.2,2.9-22.5,9.3l-1.9-0.6C124.7,213.8,128.7,203,149.1,205.1z"/>
<path class="st2" d="M139.5,201c0,0-16.8,6.8-22.3,15.9c0,0-0.4-1.2-1.3-1.2C115,215.7,127,199.1,139.5,201z"/>
<path class="st2" d="M101.8,231.7c0,0-10.2-1.8-14.9-10.3C86.9,221.4,89.8,235.7,101.8,231.7z"/>
<path class="st1" d="M91.9,158.5c0,0-2.5-6.5-13.3,0.9c-10.8,7.3-19,56.5-16,69.8c2.9,13.2,18.5,52.8,36.7,62.1
	c18.1,9.3,26.5,31.8,25.5,40.7c0,0,6.4-19.6,1-26.9c0,0,17.1,34.8,11.3,48.5c0,0,21.6-27.9,20.6-40.1c3.8-13.8,0.7-82,0.7-82
	s-13.5-1.8-17.5,3.1c-3.9,4.9-2,14.7-6.9,16.7c-4.9,2-36.7,0-47-11.3s-13.7-41.2-8.8-51.9c4.9-10.8,9.3-18.6,13.7-20.6
	C96.3,165.3,91.9,158.5,91.9,158.5z"/>
<path class="st1" d="M223.4,158.2c0,0,2.5-6.5,13.3,0.8s19.4,56.4,16.6,69.6s-18.1,53-36.1,62.5c-18,9.5-26.2,32.1-25.1,40.9
	c0,0-6.5-19.5-1.2-26.9c0,0-16.9,34.9-10.9,48.6c0,0-21.9-27.7-21-39.9c-3.9-13.8-1.4-82-1.4-82s13.5-1.9,17.5,2.9
	c4,4.9,2.1,14.7,7,16.6c4.9,1.9,36.7-0.3,46.9-11.7c10.2-11.4,13.4-41.3,8.4-52c-5-10.7-9.5-18.5-13.9-20.5
	C219.1,165.1,223.4,158.2,223.4,158.2z"/>
<g>
	<path class="st2" d="M170.6,258.6c-3.1-10.3-1-15-1-15s-10.8-7.2-22.1,0.7l0.5,2.6c0.2,2.4,0,6.4-2,12.3
		c-3.5,10.2-9.6,22.4-7.2,28.2c2.4,5.8,6.8,11.6,6.8,11.6s-1.7-9.9,4-23.6c1-2.5,1.8-5,2.3-7.4l0,0.2c0,0,4.3,4.3,4.3,8.6
		s-2.6,9.1-2.6,9.1s6.5-10.4,6.5-15.5c0-4.5,1.9,5.6,1.6,8.9c0.9-1.5,2.7-4.5,3.9-7.7c0.3,1,0.6,2,1,3c5.2,14,3.1,23.8,3.1,23.8
		s4.7-5.7,7.2-11.4C179.3,281.3,173.7,268.9,170.6,258.6z"/>
	<path class="st2" d="M161.2,280.3c0.2-0.1,0.3-0.5,0.3-1C161.1,280.1,160.9,280.5,161.2,280.3z"/>
</g>
</svg>
